<svg width="1600" height="680" viewBox="0 0 1600 680" fill="none" xmlns="http://www.w3.org/2000/svg" role="img" aria-labelledby="title desc">
  <title id="title">Tony Na Engine</title>
  <desc id="desc">A source-available visual novel engine preview with editor, runtime, export pipeline, archives, particles, and automated checks.</desc>
  <defs>
    <linearGradient id="heroBg" x1="80" y1="36" x2="1500" y2="650" gradientUnits="userSpaceOnUse">
      <stop stop-color="#07111F"/>
      <stop offset="0.52" stop-color="#10214A"/>
      <stop offset="1" stop-color="#25113E"/>
    </linearGradient>
    <linearGradient id="cyanViolet" x1="156" y1="108" x2="1420" y2="558" gradientUnits="userSpaceOnUse">
      <stop stop-color="#7DE7FF"/>
      <stop offset="0.52" stop-color="#4A88FF"/>
      <stop offset="1" stop-color="#A35BFF"/>
    </linearGradient>
    <linearGradient id="panel" x1="118" y1="108" x2="680" y2="560" gradientUnits="userSpaceOnUse">
      <stop stop-color="#F8FCFF"/>
      <stop offset="1" stop-color="#DDEAFF"/>
    </linearGradient>
    <radialGradient id="glowLeft" cx="0" cy="0" r="1" gradientUnits="userSpaceOnUse" gradientTransform="translate(310 156) rotate(32) scale(460 260)">
      <stop stop-color="#6BE2FF" stop-opacity="0.28"/>
      <stop offset="1" stop-color="#6BE2FF" stop-opacity="0"/>
    </radialGradient>
    <radialGradient id="glowRight" cx="0" cy="0" r="1" gradientUnits="userSpaceOnUse" gradientTransform="translate(1330 136) rotate(148) scale(430 250)">
      <stop stop-color="#A35BFF" stop-opacity="0.24"/>
      <stop offset="1" stop-color="#A35BFF" stop-opacity="0"/>
    </radialGradient>
    <filter id="softShadow" x="-20%" y="-20%" width="140%" height="140%">
      <feDropShadow dx="0" dy="24" stdDeviation="22" flood-color="#020713" flood-opacity="0.32"/>
    </filter>
  </defs>

  <rect width="1600" height="680" rx="44" fill="url(#heroBg)"/>
  <rect x="38" y="38" width="1524" height="604" rx="34" stroke="#FFFFFF" stroke-opacity="0.08" stroke-width="2"/>
  <rect x="58" y="58" width="1484" height="564" rx="28" stroke="url(#cyanViolet)" stroke-opacity="0.2"/>
  <ellipse cx="310" cy="156" rx="460" ry="260" fill="url(#glowLeft)"/>
  <ellipse cx="1330" cy="136" rx="430" ry="250" fill="url(#glowRight)"/>

  <g opacity="0.16">
    <path d="M112 168H1488" stroke="#84D9FF"/>
    <path d="M112 514H1488" stroke="#C985FF"/>
    <path d="M222 94V586" stroke="#84D9FF" stroke-opacity="0.5"/>
    <path d="M1220 94V586" stroke="#C985FF" stroke-opacity="0.45"/>
  </g>

  <g filter="url(#softShadow)">
    <rect x="126" y="118" width="500" height="444" rx="34" fill="#07101F" fill-opacity="0.58"/>
    <rect x="126" y="118" width="500" height="444" rx="34" stroke="url(#cyanViolet)" stroke-opacity="0.28"/>
    <rect x="168" y="162" width="416" height="356" rx="28" fill="url(#panel)"/>
    <circle cx="218" cy="210" r="13" fill="#8B45FF"/>
    <circle cx="258" cy="210" r="13" fill="#246BFF"/>
    <circle cx="298" cy="210" r="13" fill="#00A7FF"/>
    <path d="M206 258H494L452 314H372V450L292 374V314H246L206 258Z" fill="#080F4D"/>
    <path d="M402 338H496L554 258H458L402 338Z" fill="url(#cyanViolet)"/>
    <path d="M402 370H532L494 422H402V370Z" fill="#166DFF"/>
    <path d="M402 454H548L508 506H402V454Z" fill="#7B48FF"/>
    <path d="M534 244L544 274L574 284L544 294L534 324L524 294L494 284L524 274L534 244Z" fill="#8B45FF"/>
  </g>

  <g transform="translate(710 140)">
    <text x="0" y="0" fill="#7DE7FF" font-family="SF Pro Display, PingFang SC, Microsoft YaHei, Arial, sans-serif" font-size="19" font-weight="800" letter-spacing="5">
      SOURCE-AVAILABLE CREATOR PREVIEW
    </text>
    <text x="0" y="92" fill="#F7FAFF" font-family="SF Pro Display, PingFang SC, Microsoft YaHei, Arial, sans-serif" font-size="78" font-weight="850" letter-spacing="-1">
      Tony Na Engine
    </text>
    <text x="2" y="152" fill="#D8E5FA" font-family="SF Pro Display, PingFang SC, Microsoft YaHei, Arial, sans-serif" font-size="30" font-weight="650">
      Visual novel editor and runtime toolkit.
    </text>
    <text x="2" y="200" fill="#AFC0DC" font-family="SF Pro Display, PingFang SC, Microsoft YaHei, Arial, sans-serif" font-size="23" font-weight="550">
      Build stories, archives, particles, exports, and release checks.
    </text>

    <g transform="translate(0 276)">
      <rect width="206" height="50" rx="16" fill="#08111F" fill-opacity="0.48" stroke="#7DE7FF" stroke-opacity="0.24"/>
      <text x="24" y="32" fill="#F4FAFF" font-family="SF Pro Display, PingFang SC, Microsoft YaHei, Arial, sans-serif" font-size="18" font-weight="750">
        Creator License
      </text>
    </g>
    <g transform="translate(226 276)">
      <rect width="176" height="50" rx="16" fill="#08111F" fill-opacity="0.48" stroke="#4A88FF" stroke-opacity="0.24"/>
      <text x="24" y="32" fill="#F4FAFF" font-family="SF Pro Display, PingFang SC, Microsoft YaHei, Arial, sans-serif" font-size="18" font-weight="750">
        Visual Editor
      </text>
    </g>
    <g transform="translate(422 276)">
      <rect width="178" height="50" rx="16" fill="#08111F" fill-opacity="0.48" stroke="#A35BFF" stroke-opacity="0.24"/>
      <text x="24" y="32" fill="#F4FAFF" font-family="SF Pro Display, PingFang SC, Microsoft YaHei, Arial, sans-serif" font-size="18" font-weight="750">
        Native Path
      </text>
    </g>

    <g transform="translate(2 378)">
      <circle cx="7" cy="7" r="7" fill="#76DFFF"/>
      <text x="30" y="14" fill="#A8BAD9" font-family="SF Pro Display, PingFang SC, Microsoft YaHei, Arial, sans-serif" font-size="18" font-weight="650">
        Project center · Runtime archives · UI skins · Playwright checks
      </text>
    </g>
  </g>
</svg>
